<svg width="175" height="39" viewBox="0 0 175 39" fill="none" xmlns="http://www.w3.org/2000/svg">
<path d="M-0.00177557 30L4.82777 0.90909H25.7937L24.7141 7.27273H11.646L10.8505 12.2727H22.8391L21.7596 18.6364H9.77095L8.9755 23.6364H21.9869L20.9073 30H-0.00177557ZM35.4492 30.3977C33.0818 30.3977 31.131 29.929 29.5969 28.9915C28.0629 28.0445 26.988 26.7282 26.3725 25.0426C25.757 23.3475 25.6386 21.3826 26.0174 19.1477C26.3772 16.9129 27.1443 14.9527 28.3185 13.267C29.5022 11.572 31.0174 10.2557 32.864 9.31818C34.7201 8.37121 36.8318 7.89773 39.1992 7.89773C41.3394 7.89773 43.1244 8.28598 44.5543 9.0625C45.9937 9.82955 47.0212 10.9186 47.6367 12.3295C48.2617 13.7311 48.4227 15.3788 48.1197 17.2727H40.8469C40.9322 16.1364 40.7475 15.2652 40.293 14.6591C39.8479 14.053 39.1992 13.75 38.3469 13.75C37.6462 13.75 37.0022 13.9489 36.4151 14.3466C35.8375 14.7348 35.3403 15.3267 34.9237 16.1222C34.5165 16.9081 34.2182 17.8977 34.0288 19.0909C33.8394 20.2841 33.8157 21.2784 33.9577 22.0739C34.1093 22.8598 34.4028 23.4517 34.8384 23.8494C35.2835 24.2377 35.8469 24.4318 36.5288 24.4318C37.1159 24.4318 37.6557 24.2992 38.1481 24.0341C38.65 23.7595 39.0808 23.3617 39.4407 22.8409C39.81 22.3106 40.0894 21.6667 40.2788 20.9091H47.5515C47.1916 22.8409 46.4672 24.517 45.3782 25.9375C44.2892 27.358 42.9019 28.4564 41.2163 29.233C39.5307 30.0095 37.6083 30.3977 35.4492 30.3977ZM59.707 30.3977C57.3396 30.3977 55.3888 29.929 53.8548 28.9915C52.3301 28.0445 51.2601 26.7282 50.6445 25.0426C50.029 23.3475 49.9059 21.3826 50.2752 19.1477C50.6445 16.9129 51.4163 14.9527 52.5906 13.267C53.7648 11.572 55.2752 10.2557 57.1218 9.31818C58.9684 8.37121 61.0801 7.89773 63.457 7.89773C65.815 7.89773 67.7563 8.37121 69.2809 9.31818C70.815 10.2557 71.8898 11.572 72.5053 13.267C73.1303 14.9527 73.2582 16.9129 72.8889 19.1477C72.5195 21.3826 71.743 23.3475 70.5593 25.0426C69.3756 26.7282 67.8604 28.0445 66.0138 28.9915C64.1767 29.929 62.0745 30.3977 59.707 30.3977ZM60.6729 24.6023C61.3548 24.6023 61.975 24.3797 62.5337 23.9347C63.1019 23.4896 63.5849 22.8551 63.9826 22.0312C64.3898 21.2074 64.6881 20.2273 64.8775 19.0909C65.0669 17.9451 65.0953 16.965 64.9627 16.1506C64.8301 15.3267 64.5555 14.6922 64.1388 14.2472C63.7222 13.8021 63.1729 13.5795 62.4911 13.5795C61.8093 13.5795 61.1843 13.8021 60.6161 14.2472C60.0479 14.6922 59.565 15.3267 59.1673 16.1506C58.7695 16.965 58.476 17.9451 58.2866 19.0909C58.0972 20.2273 58.064 21.2074 58.1871 22.0312C58.3197 22.8551 58.5943 23.4896 59.011 23.9347C59.4371 24.3797 59.9911 24.6023 60.6729 24.6023Z" fill="white"/>
<path d="M93.1161 10C93.2013 9.0625 92.9741 8.3286 92.4343 7.7983C91.8945 7.25852 90.9854 6.98864 89.707 6.98864C88.8926 6.98864 88.2108 7.08333 87.6616 7.27273C87.1218 7.46212 86.7004 7.72254 86.3974 8.05398C86.1038 8.38542 85.9192 8.76894 85.8434 9.20455C85.7582 9.54545 85.7629 9.85795 85.8576 10.142C85.9618 10.4167 86.1559 10.6676 86.44 10.8949C86.7335 11.1222 87.1171 11.3258 87.5906 11.5057C88.0735 11.6856 88.6464 11.8466 89.3093 11.9886L91.582 12.5C93.1351 12.8409 94.4371 13.2907 95.4883 13.8494C96.5489 14.3987 97.3822 15.0521 97.9883 15.8097C98.5943 16.5672 98.9921 17.4148 99.1815 18.3523C99.3803 19.2898 99.3851 20.3125 99.1957 21.4205C98.8737 23.3333 98.1303 24.9527 96.9656 26.2784C95.8008 27.6042 94.2809 28.6127 92.4059 29.304C90.5309 29.9953 88.3623 30.3409 85.9002 30.3409C83.3813 30.3409 81.2411 29.9669 79.4798 29.2188C77.7279 28.4612 76.4589 27.3059 75.6729 25.7528C74.8964 24.1903 74.707 22.197 75.1048 19.7727H82.6048C82.4911 20.6629 82.5858 21.411 82.8888 22.017C83.1919 22.6231 83.6796 23.0824 84.3519 23.3949C85.0243 23.7074 85.8623 23.8636 86.8661 23.8636C87.7184 23.8636 88.4476 23.7595 89.0536 23.5511C89.6597 23.3428 90.1379 23.054 90.4883 22.6847C90.8387 22.3153 91.0517 21.8939 91.1275 21.4205C91.2032 20.9848 91.1275 20.5966 90.9002 20.2557C90.6729 19.9148 90.261 19.607 89.6644 19.3324C89.0678 19.0578 88.2487 18.8068 87.207 18.5795L84.4229 17.9545C81.9513 17.3864 80.0858 16.4489 78.8263 15.142C77.5669 13.8352 77.1218 12.0455 77.4911 9.77273C77.7942 7.91667 78.5565 6.29735 79.7781 4.91477C81.0091 3.52273 82.5716 2.44318 84.4656 1.67614C86.369 0.89962 88.476 0.511363 90.7866 0.511363C93.1351 0.511363 95.1 0.904355 96.6815 1.69034C98.2724 2.47633 99.4135 3.57955 100.105 5C100.806 6.42045 100.995 8.08712 100.673 10H93.1161ZM104.331 38.1818C103.422 38.1818 102.574 38.1108 101.788 37.9688C101.002 37.8362 100.315 37.6515 99.7283 37.4148L102.37 31.8466C102.976 32.0739 103.535 32.2206 104.047 32.2869C104.567 32.3532 105.027 32.3153 105.424 32.1733C105.822 32.0313 106.149 31.7614 106.404 31.3636L106.66 30.9659L102.768 8.18182H110.666L111.66 23.2955H111.887L117.995 8.18182H126.518L114.643 31.8182C114.037 33.0208 113.279 34.1004 112.37 35.0568C111.471 36.0227 110.363 36.785 109.047 37.3438C107.73 37.9025 106.158 38.1818 104.331 38.1818ZM135.055 17.7273L133.01 30H125.169L128.805 8.18182H136.248L135.566 12.3295H135.794C136.485 10.9375 137.493 9.85322 138.819 9.0767C140.154 8.29072 141.627 7.89773 143.237 7.89773C144.78 7.89773 146.064 8.24811 147.086 8.94886C148.109 9.64962 148.833 10.6155 149.26 11.8466C149.686 13.0777 149.761 14.4886 149.487 16.0795L147.157 30H139.316L141.362 17.7273C141.542 16.6477 141.409 15.8002 140.964 15.1847C140.529 14.5691 139.809 14.2614 138.805 14.2614C138.171 14.2614 137.588 14.4034 137.058 14.6875C136.537 14.9621 136.101 15.3598 135.751 15.8807C135.41 16.392 135.178 17.0076 135.055 17.7273ZM161.426 30.3977C159.058 30.3977 157.108 29.929 155.574 28.9915C154.039 28.0445 152.965 26.7282 152.349 25.0426C151.734 23.3475 151.615 21.3826 151.994 19.1477C152.354 16.9129 153.121 14.9527 154.295 13.267C155.479 11.572 156.994 10.2557 158.841 9.31818C160.697 8.37121 162.808 7.89773 165.176 7.89773C167.316 7.89773 169.101 8.28598 170.531 9.0625C171.97 9.82955 172.998 10.9186 173.613 12.3295C174.238 13.7311 174.399 15.3788 174.096 17.2727H166.824C166.909 16.1364 166.724 15.2652 166.27 14.6591C165.824 14.053 165.176 13.75 164.324 13.75C163.623 13.75 162.979 13.9489 162.392 14.3466C161.814 14.7348 161.317 15.3267 160.9 16.1222C160.493 16.9081 160.195 17.8977 160.005 19.0909C159.816 20.2841 159.792 21.2784 159.934 22.0739C160.086 22.8598 160.379 23.4517 160.815 23.8494C161.26 24.2377 161.824 24.4318 162.505 24.4318C163.092 24.4318 163.632 24.2992 164.125 24.0341C164.627 23.7595 165.057 23.3617 165.417 22.8409C165.787 22.3106 166.066 21.6667 166.255 20.9091H173.528C173.168 22.8409 172.444 24.517 171.355 25.9375C170.266 27.358 168.878 28.4564 167.193 29.233C165.507 30.0095 163.585 30.3977 161.426 30.3977Z" fill="#FFE81F"/>
</svg>
