<svg width="210" height="46" viewBox="0 0 210 46" fill="none" xmlns="http://www.w3.org/2000/svg">
<path d="M0.497869 36L6.29332 1.09091H31.4524L30.157 8.72727H14.4751L13.5206 14.7273H27.907L26.6115 22.3636H12.2251L11.2706 28.3636H26.8842L25.5888 36H0.497869ZM43.0391 36.4773C40.1982 36.4773 37.8572 35.9148 36.0163 34.7898C34.1754 33.6534 32.8857 32.0739 32.147 30.0511C31.4084 28.017 31.2663 25.6591 31.7209 22.9773C32.1527 20.2955 33.0732 17.9432 34.4822 15.9205C35.9027 13.8864 37.7209 12.3068 39.9368 11.1818C42.1641 10.0455 44.6982 9.47727 47.5391 9.47727C50.1072 9.47727 52.2493 9.94318 53.9652 10.875C55.6925 11.7955 56.9254 13.1023 57.6641 14.7955C58.4141 16.4773 58.6072 18.4545 58.2436 20.7273H49.5163C49.6186 19.3636 49.397 18.3182 48.8516 17.5909C48.3175 16.8636 47.5391 16.5 46.5163 16.5C45.6754 16.5 44.9027 16.7386 44.1982 17.2159C43.505 17.6818 42.9084 18.392 42.4084 19.3466C41.9197 20.2898 41.5618 21.4773 41.3345 22.9091C41.1072 24.3409 41.0788 25.5341 41.2493 26.4886C41.4311 27.4318 41.7834 28.142 42.3061 28.6193C42.8402 29.0852 43.5163 29.3182 44.3345 29.3182C45.0391 29.3182 45.6868 29.1591 46.2777 28.8409C46.88 28.5114 47.397 28.0341 47.8288 27.4091C48.272 26.7727 48.6072 26 48.8345 25.0909H57.5618C57.13 27.4091 56.2607 29.4205 54.9538 31.125C53.647 32.8295 51.9822 34.1477 49.9595 35.0795C47.9368 36.0114 45.63 36.4773 43.0391 36.4773ZM72.1484 36.4773C69.3075 36.4773 66.9666 35.9148 65.1257 34.7898C63.2962 33.6534 62.0121 32.0739 61.2734 30.0511C60.5348 28.017 60.3871 25.6591 60.8303 22.9773C61.2734 20.2955 62.1996 17.9432 63.6087 15.9205C65.0178 13.8864 66.8303 12.3068 69.0462 11.1818C71.2621 10.0455 73.7962 9.47727 76.6484 9.47727C79.478 9.47727 81.8075 10.0455 83.6371 11.1818C85.478 12.3068 86.7678 13.8864 87.5064 15.9205C88.2564 17.9432 88.4098 20.2955 87.9666 22.9773C87.5234 25.6591 86.5916 28.017 85.1712 30.0511C83.7507 32.0739 81.9325 33.6534 79.7166 34.7898C77.5121 35.9148 74.9893 36.4773 72.1484 36.4773ZM73.3075 29.5227C74.1257 29.5227 74.87 29.2557 75.5405 28.7216C76.2223 28.1875 76.8018 27.4261 77.2791 26.4375C77.7678 25.4489 78.1257 24.2727 78.353 22.9091C78.5803 21.5341 78.6143 20.358 78.4553 19.3807C78.2962 18.392 77.9666 17.6307 77.4666 17.0966C76.9666 16.5625 76.3075 16.2955 75.4893 16.2955C74.6712 16.2955 73.9212 16.5625 73.2393 17.0966C72.5575 17.6307 71.978 18.392 71.5007 19.3807C71.0234 20.358 70.6712 21.5341 70.4439 22.9091C70.2166 24.2727 70.1768 25.4489 70.3246 26.4375C70.4837 27.4261 70.8132 28.1875 71.3132 28.7216C71.8246 29.2557 72.4893 29.5227 73.3075 29.5227Z" fill="white"/>
<path d="M112.239 12C112.342 10.875 112.069 9.99432 111.421 9.35795C110.773 8.71023 109.683 8.38636 108.148 8.38636C107.171 8.38636 106.353 8.5 105.694 8.72727C105.046 8.95455 104.54 9.26705 104.177 9.66477C103.825 10.0625 103.603 10.5227 103.512 11.0455C103.41 11.4545 103.415 11.8295 103.529 12.1705C103.654 12.5 103.887 12.8011 104.228 13.0739C104.58 13.3466 105.04 13.5909 105.609 13.8068C106.188 14.0227 106.876 14.2159 107.671 14.3864L110.398 15C112.262 15.4091 113.825 15.9489 115.086 16.6193C116.359 17.2784 117.359 18.0625 118.086 18.9716C118.813 19.8807 119.29 20.8977 119.518 22.0227C119.756 23.1477 119.762 24.375 119.535 25.7045C119.148 28 118.256 29.9432 116.859 31.5341C115.461 33.125 113.637 34.3352 111.387 35.1648C109.137 35.9943 106.535 36.4091 103.58 36.4091C100.558 36.4091 97.9893 35.9602 95.8757 35.0625C93.7734 34.1534 92.2507 32.767 91.3075 30.9034C90.3757 29.0284 90.1484 26.6364 90.6257 23.7273H99.6257C99.4893 24.7955 99.603 25.6932 99.9666 26.4205C100.33 27.1477 100.915 27.6989 101.722 28.0739C102.529 28.4489 103.535 28.6364 104.739 28.6364C105.762 28.6364 106.637 28.5114 107.364 28.2614C108.092 28.0114 108.665 27.6648 109.086 27.2216C109.506 26.7784 109.762 26.2727 109.853 25.7045C109.944 25.1818 109.853 24.7159 109.58 24.3068C109.308 23.8977 108.813 23.5284 108.097 23.1989C107.381 22.8693 106.398 22.5682 105.148 22.2955L101.808 21.5455C98.8416 20.8636 96.603 19.7386 95.0916 18.1705C93.5803 16.6023 93.0462 14.4545 93.4893 11.7273C93.853 9.5 94.7678 7.55682 96.2337 5.89773C97.7109 4.22727 99.5859 2.93182 101.859 2.01136C104.143 1.07954 106.671 0.613635 109.444 0.613635C112.262 0.613635 114.62 1.08523 116.518 2.02841C118.427 2.97159 119.796 4.29545 120.626 6C121.467 7.70454 121.694 9.70454 121.308 12H112.239ZM125.697 45.8182C124.606 45.8182 123.589 45.733 122.646 45.5625C121.702 45.4034 120.879 45.1818 120.174 44.8977L123.344 38.2159C124.072 38.4886 124.742 38.6648 125.356 38.7443C125.981 38.8239 126.532 38.7784 127.009 38.608C127.487 38.4375 127.879 38.1136 128.185 37.6364L128.492 37.1591L123.822 9.81818H133.299L134.492 27.9545H134.765L142.094 9.81818H152.322L138.072 38.1818C137.344 39.625 136.435 40.9205 135.344 42.0682C134.265 43.2273 132.935 44.142 131.356 44.8125C129.776 45.483 127.89 45.8182 125.697 45.8182ZM162.566 21.2727L160.112 36H150.702L155.066 9.81818H163.998L163.18 14.7955H163.452C164.282 13.125 165.492 11.8239 167.083 10.892C168.685 9.94886 170.452 9.47727 172.384 9.47727C174.237 9.47727 175.776 9.89773 177.004 10.7386C178.231 11.5795 179.1 12.7386 179.612 14.2159C180.123 15.6932 180.214 17.3864 179.884 19.2955L177.089 36H167.68L170.134 21.2727C170.35 19.9773 170.191 18.9602 169.657 18.2216C169.134 17.483 168.271 17.1136 167.066 17.1136C166.305 17.1136 165.606 17.2841 164.969 17.625C164.344 17.9545 163.822 18.4318 163.401 19.0568C162.992 19.6705 162.714 20.4091 162.566 21.2727ZM194.211 36.4773C191.37 36.4773 189.029 35.9148 187.188 34.7898C185.347 33.6534 184.058 32.0739 183.319 30.0511C182.58 28.017 182.438 25.6591 182.893 22.9773C183.325 20.2955 184.245 17.9432 185.654 15.9205C187.075 13.8864 188.893 12.3068 191.109 11.1818C193.336 10.0455 195.87 9.47727 198.711 9.47727C201.279 9.47727 203.421 9.94318 205.137 10.875C206.864 11.7955 208.097 13.1023 208.836 14.7955C209.586 16.4773 209.779 18.4545 209.415 20.7273H200.688C200.79 19.3636 200.569 18.3182 200.023 17.5909C199.489 16.8636 198.711 16.5 197.688 16.5C196.847 16.5 196.075 16.7386 195.37 17.2159C194.677 17.6818 194.08 18.392 193.58 19.3466C193.092 20.2898 192.734 21.4773 192.506 22.9091C192.279 24.3409 192.251 25.5341 192.421 26.4886C192.603 27.4318 192.955 28.142 193.478 28.6193C194.012 29.0852 194.688 29.3182 195.506 29.3182C196.211 29.3182 196.859 29.1591 197.45 28.8409C198.052 28.5114 198.569 28.0341 199.001 27.4091C199.444 26.7727 199.779 26 200.006 25.0909H208.734C208.302 27.4091 207.433 29.4205 206.126 31.125C204.819 32.8295 203.154 34.1477 201.131 35.0795C199.109 36.0114 196.802 36.4773 194.211 36.4773Z" fill="#FFE81F"/>
</svg>
